G04 #@! TF.GenerationSoftware,KiCad,Pcbnew,(5.1.5)-3*
G04 #@! TF.CreationDate,2021-03-18T13:28:47-04:00*
G04 #@! TF.ProjectId,LED_Harness_3x2_GREEN,4c45445f-4861-4726-9e65-73735f337832,rev?*
G04 #@! TF.SameCoordinates,Original*
G04 #@! TF.FileFunction,Copper,L2,Bot*
G04 #@! TF.FilePolarity,Positive*
%FSLAX46Y46*%
G04 Gerber Fmt 4.6, Leading zero omitted, Abs format (unit mm)*
G04 Created by KiCad (PCBNEW (5.1.5)-3) date 2021-03-18 13:28:47*
%MOMM*%
%LPD*%
G04 APERTURE LIST*
%ADD10C,0.800000*%
%ADD11C,0.250000*%
G04 APERTURE END LIST*
D10*
X127228262Y-84354292D03*
X128136820Y-87264807D03*
X136728538Y-135076308D03*
X135819980Y-132165793D03*
X141624220Y-87468007D03*
X140715662Y-84557492D03*
X149860338Y-135127108D03*
X148951780Y-132216593D03*
X130274763Y-84894799D03*
X130454400Y-80669138D03*
X133682037Y-134535801D03*
X133502400Y-138761462D03*
X143941800Y-80872338D03*
X143762163Y-85097999D03*
X146634200Y-138812262D03*
X146813837Y-134586601D03*
D11*
X127628261Y-84754291D02*
X128267031Y-84754291D01*
X127228262Y-84354292D02*
X127628261Y-84754291D01*
X128267031Y-84754291D02*
X128136820Y-84884502D01*
X128136820Y-84884502D02*
X128136820Y-87264807D01*
X135689769Y-134676309D02*
X135819980Y-134546098D01*
X136328539Y-134676309D02*
X135689769Y-134676309D01*
X135819980Y-134546098D02*
X135819980Y-132165793D01*
X136728538Y-135076308D02*
X136328539Y-134676309D01*
X141115661Y-84957491D02*
X141754431Y-84957491D01*
X141624220Y-85087702D02*
X141624220Y-87468007D01*
X141754431Y-84957491D02*
X141624220Y-85087702D01*
X140715662Y-84557492D02*
X141115661Y-84957491D01*
X149460339Y-134727109D02*
X148821569Y-134727109D01*
X148951780Y-134596898D02*
X148951780Y-132216593D01*
X149860338Y-135127108D02*
X149460339Y-134727109D01*
X148821569Y-134727109D02*
X148951780Y-134596898D01*
X130274763Y-84894799D02*
X130274763Y-80848775D01*
X130274763Y-80848775D02*
X130454400Y-80669138D01*
X133682037Y-134535801D02*
X133682037Y-138581825D01*
X133682037Y-138581825D02*
X133502400Y-138761462D01*
X143762163Y-85097999D02*
X143762163Y-81051975D01*
X143762163Y-81051975D02*
X143941800Y-80872338D01*
X146813837Y-134586601D02*
X146813837Y-138632625D01*
X146813837Y-138632625D02*
X146634200Y-138812262D01*
M02*
