G04 #@! TF.GenerationSoftware,KiCad,Pcbnew,(5.1.5)-3*
G04 #@! TF.CreationDate,2021-03-18T13:28:47-04:00*
G04 #@! TF.ProjectId,LED_Harness_3x2_GREEN,4c45445f-4861-4726-9e65-73735f337832,rev?*
G04 #@! TF.SameCoordinates,Original*
G04 #@! TF.FileFunction,Copper,L1,Top*
G04 #@! TF.FilePolarity,Positive*
%FSLAX46Y46*%
G04 Gerber Fmt 4.6, Leading zero omitted, Abs format (unit mm)*
G04 Created by KiCad (PCBNEW (5.1.5)-3) date 2021-03-18 13:28:47*
%MOMM*%
%LPD*%
G04 APERTURE LIST*
%ADD10R,0.300000X50.000000*%
%ADD11R,2.250000X1.500000*%
%ADD12C,0.800000*%
%ADD13C,0.250000*%
G04 APERTURE END LIST*
D10*
X147726780Y-104546400D03*
X148226780Y-104546400D03*
X148726780Y-104546400D03*
X149226780Y-104546400D03*
D11*
X145671540Y-133837680D03*
X145656300Y-135935720D03*
X151290020Y-133835140D03*
X151274780Y-135933180D03*
X148468080Y-135930640D03*
X148483320Y-133832600D03*
X151277320Y-137462260D03*
X151262080Y-139560300D03*
X148454110Y-139555220D03*
X148469350Y-137457180D03*
X145658840Y-137462260D03*
X145643600Y-139560300D03*
X144917160Y-82222340D03*
X144932400Y-80124300D03*
X144904460Y-85846920D03*
X144919700Y-83748880D03*
D10*
X142849220Y-115138200D03*
X142349220Y-115138200D03*
X141849220Y-115138200D03*
X141349220Y-115138200D03*
D11*
X139285980Y-85849460D03*
X139301220Y-83751420D03*
X142107920Y-83753960D03*
X142092680Y-85852000D03*
X142121890Y-80129380D03*
X142106650Y-82227420D03*
X139298680Y-82222340D03*
X139313920Y-80124300D03*
X135337550Y-137406380D03*
X135322310Y-139504420D03*
X135351520Y-133781800D03*
X135336280Y-135879840D03*
X132511800Y-139509500D03*
X132527040Y-137411460D03*
X138130280Y-139509500D03*
X138145520Y-137411460D03*
X132524500Y-135884920D03*
X132539740Y-133786880D03*
D10*
X136094980Y-104495600D03*
X135594980Y-104495600D03*
X135094980Y-104495600D03*
X134594980Y-104495600D03*
D11*
X138142980Y-135882380D03*
X138158220Y-133784340D03*
D10*
X129361820Y-114935000D03*
X128861820Y-114935000D03*
X128361820Y-114935000D03*
X127861820Y-114935000D03*
D11*
X125811280Y-82019140D03*
X125826520Y-79921100D03*
X128634490Y-79926180D03*
X128619250Y-82024220D03*
X131429760Y-82019140D03*
X131445000Y-79921100D03*
X125798580Y-85646260D03*
X125813820Y-83548220D03*
X128620520Y-83550760D03*
X128605280Y-85648800D03*
X131417060Y-85643720D03*
X131432300Y-83545680D03*
D12*
X127228262Y-84354292D03*
X128136820Y-87264807D03*
X136728538Y-135076308D03*
X135819980Y-132165793D03*
X141624220Y-87468007D03*
X140715662Y-84557492D03*
X149860338Y-135127108D03*
X148951780Y-132216593D03*
X130274763Y-84894799D03*
X130454400Y-80669138D03*
X133682037Y-134535801D03*
X133502400Y-138761462D03*
X143941800Y-80872338D03*
X143762163Y-85097999D03*
X146634200Y-138812262D03*
X146813837Y-134586601D03*
D13*
X131432300Y-82021680D02*
X131429760Y-82019140D01*
X131432300Y-83545680D02*
X131432300Y-82021680D01*
X128620520Y-82025490D02*
X128619250Y-82024220D01*
X128620520Y-83550760D02*
X128620520Y-82025490D01*
X125813820Y-82021680D02*
X125811280Y-82019140D01*
X125813820Y-83548220D02*
X125813820Y-82021680D01*
X128614170Y-82019140D02*
X128619250Y-82024220D01*
X125811280Y-82019140D02*
X128614170Y-82019140D01*
X131424680Y-82024220D02*
X131429760Y-82019140D01*
X128619250Y-82024220D02*
X131424680Y-82024220D01*
X128625600Y-83545680D02*
X128620520Y-83550760D01*
X131432300Y-83545680D02*
X128625600Y-83545680D01*
X125816360Y-83550760D02*
X125813820Y-83548220D01*
X128620520Y-83550760D02*
X125816360Y-83550760D01*
X128620520Y-83550760D02*
X128031794Y-83550760D01*
X128031794Y-83550760D02*
X127228262Y-84354292D01*
X128136820Y-87830492D02*
X128307168Y-88000840D01*
X128136820Y-87264807D02*
X128136820Y-87830492D01*
X128361820Y-89837640D02*
X128361820Y-114935000D01*
X128307168Y-89782988D02*
X128361820Y-89837640D01*
X128307168Y-88000840D02*
X128307168Y-89782988D01*
X127736821Y-87664806D02*
X127736821Y-88069641D01*
X128136820Y-87264807D02*
X127736821Y-87664806D01*
X127861820Y-88194640D02*
X127861820Y-114935000D01*
X127736821Y-88069641D02*
X127861820Y-88194640D01*
X132524500Y-135884920D02*
X132524500Y-137408920D01*
X135336280Y-137405110D02*
X135337550Y-137406380D01*
X138142980Y-137408920D02*
X138145520Y-137411460D01*
X132532120Y-137406380D02*
X132527040Y-137411460D01*
X138140440Y-135879840D02*
X138142980Y-135882380D01*
X132524500Y-135884920D02*
X135331200Y-135884920D01*
X135336280Y-135879840D02*
X138140440Y-135879840D01*
X135342630Y-137411460D02*
X135337550Y-137406380D01*
X135336280Y-135879840D02*
X135336280Y-137405110D01*
X135925006Y-135879840D02*
X136728538Y-135076308D01*
X138145520Y-137411460D02*
X135342630Y-137411460D01*
X135819980Y-131600108D02*
X135649632Y-131429760D01*
X135331200Y-135884920D02*
X135336280Y-135879840D01*
X135819980Y-132165793D02*
X135819980Y-131600108D01*
X135594980Y-129592960D02*
X135594980Y-104495600D01*
X135649632Y-129647612D02*
X135594980Y-129592960D01*
X135649632Y-131429760D02*
X135649632Y-129647612D01*
X135336280Y-135879840D02*
X135925006Y-135879840D01*
X135337550Y-137406380D02*
X132532120Y-137406380D01*
X136219979Y-131765794D02*
X136219979Y-131360959D01*
X132524500Y-137408920D02*
X132527040Y-137411460D01*
X138142980Y-135882380D02*
X138142980Y-137408920D01*
X136094980Y-131235960D02*
X136094980Y-104495600D01*
X136219979Y-131360959D02*
X136094980Y-131235960D01*
X135819980Y-132165793D02*
X136219979Y-131765794D01*
X141794568Y-88204040D02*
X141794568Y-89986188D01*
X141794568Y-89986188D02*
X141849220Y-90040840D01*
X139301220Y-83751420D02*
X139301220Y-82224880D01*
X144912080Y-82227420D02*
X144917160Y-82222340D01*
X139298680Y-82222340D02*
X142101570Y-82222340D01*
X144919700Y-83748880D02*
X144919700Y-82224880D01*
X141624220Y-87468007D02*
X141624220Y-88033692D01*
X142107920Y-82228690D02*
X142106650Y-82227420D01*
X141849220Y-90040840D02*
X141849220Y-115138200D01*
X142113000Y-83748880D02*
X142107920Y-83753960D01*
X142106650Y-82227420D02*
X144912080Y-82227420D01*
X141624220Y-88033692D02*
X141794568Y-88204040D01*
X139301220Y-82224880D02*
X139298680Y-82222340D01*
X141349220Y-88397840D02*
X141349220Y-115138200D01*
X139303760Y-83753960D02*
X139301220Y-83751420D01*
X142107920Y-83753960D02*
X142107920Y-82228690D01*
X144919700Y-83748880D02*
X142113000Y-83748880D01*
X142101570Y-82222340D02*
X142106650Y-82227420D01*
X141519194Y-83753960D02*
X140715662Y-84557492D01*
X142107920Y-83753960D02*
X141519194Y-83753960D01*
X141224221Y-87868006D02*
X141224221Y-88272841D01*
X142107920Y-83753960D02*
X139303760Y-83753960D01*
X144919700Y-82224880D02*
X144917160Y-82222340D01*
X141624220Y-87468007D02*
X141224221Y-87868006D01*
X141224221Y-88272841D02*
X141349220Y-88397840D01*
X149226780Y-131286760D02*
X149226780Y-104546400D01*
X148469350Y-137457180D02*
X145663920Y-137457180D01*
X148781432Y-129698412D02*
X148726780Y-129643760D01*
X151274780Y-135933180D02*
X151274780Y-137459720D01*
X145663920Y-137457180D02*
X145658840Y-137462260D01*
X145656300Y-135935720D02*
X145656300Y-137459720D01*
X148951780Y-132216593D02*
X148951780Y-131650908D01*
X148726780Y-129643760D02*
X148726780Y-104546400D01*
X148781432Y-131480560D02*
X148781432Y-129698412D01*
X151277320Y-137462260D02*
X148474430Y-137462260D01*
X148468080Y-137455910D02*
X148469350Y-137457180D01*
X148463000Y-135935720D02*
X148468080Y-135930640D01*
X148951780Y-131650908D02*
X148781432Y-131480560D01*
X151274780Y-137459720D02*
X151277320Y-137462260D01*
X151272240Y-135930640D02*
X151274780Y-135933180D01*
X148474430Y-137462260D02*
X148469350Y-137457180D01*
X145656300Y-135935720D02*
X148463000Y-135935720D01*
X148468080Y-135930640D02*
X148468080Y-137455910D01*
X149351779Y-131816594D02*
X149351779Y-131411759D01*
X148468080Y-135930640D02*
X149056806Y-135930640D01*
X149056806Y-135930640D02*
X149860338Y-135127108D01*
X149351779Y-131411759D02*
X149226780Y-131286760D01*
X145656300Y-137459720D02*
X145658840Y-137462260D01*
X148468080Y-135930640D02*
X151272240Y-135930640D01*
X148951780Y-132216593D02*
X149351779Y-131816594D01*
X128629410Y-79921100D02*
X128634490Y-79926180D01*
X125826520Y-79921100D02*
X128629410Y-79921100D01*
X131439920Y-79926180D02*
X131445000Y-79921100D01*
X128634490Y-79926180D02*
X131439920Y-79926180D01*
X128602740Y-85646260D02*
X128605280Y-85648800D01*
X125798580Y-85646260D02*
X128602740Y-85646260D01*
X128610360Y-85643720D02*
X128605280Y-85648800D01*
X131417060Y-85643720D02*
X128610360Y-85643720D01*
X128861820Y-89685000D02*
X128861820Y-114935000D01*
X128861820Y-86905340D02*
X128861820Y-89685000D01*
X128605280Y-86648800D02*
X128861820Y-86905340D01*
X128605280Y-85648800D02*
X128605280Y-86648800D01*
X129361820Y-86405340D02*
X128605280Y-85648800D01*
X129361820Y-114935000D02*
X129361820Y-86405340D01*
X131417060Y-85643720D02*
X131023684Y-85643720D01*
X131023684Y-85643720D02*
X130274763Y-84894799D01*
X130696962Y-80669138D02*
X131445000Y-79921100D01*
X130454400Y-80669138D02*
X130696962Y-80669138D01*
X135327390Y-139509500D02*
X135322310Y-139504420D01*
X135322310Y-139504420D02*
X132516880Y-139504420D01*
X135354060Y-133784340D02*
X135351520Y-133781800D01*
X132539740Y-133786880D02*
X135346440Y-133786880D01*
X135351520Y-133781800D02*
X135351520Y-132781800D01*
X135094980Y-132525260D02*
X135094980Y-129745600D01*
X134594980Y-133025260D02*
X135351520Y-133781800D01*
X132516880Y-139504420D02*
X132511800Y-139509500D01*
X133259838Y-138761462D02*
X132511800Y-139509500D01*
X138158220Y-133784340D02*
X135354060Y-133784340D01*
X135346440Y-133786880D02*
X135351520Y-133781800D01*
X134594980Y-104495600D02*
X134594980Y-133025260D01*
X132539740Y-133786880D02*
X132933116Y-133786880D01*
X135351520Y-132781800D02*
X135094980Y-132525260D01*
X132933116Y-133786880D02*
X133682037Y-134535801D01*
X133502400Y-138761462D02*
X133259838Y-138761462D01*
X135094980Y-129745600D02*
X135094980Y-104495600D01*
X138130280Y-139509500D02*
X135327390Y-139509500D01*
X142090140Y-85849460D02*
X142092680Y-85852000D01*
X144904460Y-85846920D02*
X142097760Y-85846920D01*
X144927320Y-80129380D02*
X144932400Y-80124300D01*
X144184362Y-80872338D02*
X144932400Y-80124300D01*
X142116810Y-80124300D02*
X142121890Y-80129380D01*
X142349220Y-87108540D02*
X142349220Y-89888200D01*
X139285980Y-85849460D02*
X142090140Y-85849460D01*
X142097760Y-85846920D02*
X142092680Y-85852000D01*
X142849220Y-115138200D02*
X142849220Y-86608540D01*
X142121890Y-80129380D02*
X144927320Y-80129380D01*
X142092680Y-85852000D02*
X142092680Y-86852000D01*
X142849220Y-86608540D02*
X142092680Y-85852000D01*
X144904460Y-85846920D02*
X144511084Y-85846920D01*
X142092680Y-86852000D02*
X142349220Y-87108540D01*
X143941800Y-80872338D02*
X144184362Y-80872338D01*
X139313920Y-80124300D02*
X142116810Y-80124300D01*
X142349220Y-89888200D02*
X142349220Y-115138200D01*
X144511084Y-85846920D02*
X143762163Y-85097999D01*
X145671540Y-133837680D02*
X148478240Y-133837680D01*
X148226780Y-132576060D02*
X148226780Y-129796400D01*
X145648680Y-139555220D02*
X145643600Y-139560300D01*
X146391638Y-138812262D02*
X145643600Y-139560300D01*
X148485860Y-133835140D02*
X148483320Y-133832600D01*
X148459190Y-139560300D02*
X148454110Y-139555220D01*
X148454110Y-139555220D02*
X145648680Y-139555220D01*
X146064916Y-133837680D02*
X146813837Y-134586601D01*
X148483320Y-133832600D02*
X148483320Y-132832600D01*
X148483320Y-132832600D02*
X148226780Y-132576060D01*
X151262080Y-139560300D02*
X148459190Y-139560300D01*
X147726780Y-133076060D02*
X148483320Y-133832600D01*
X151290020Y-133835140D02*
X148485860Y-133835140D01*
X146634200Y-138812262D02*
X146391638Y-138812262D01*
X145671540Y-133837680D02*
X146064916Y-133837680D01*
X148478240Y-133837680D02*
X148483320Y-133832600D01*
X148226780Y-129796400D02*
X148226780Y-104546400D01*
X147726780Y-104546400D02*
X147726780Y-133076060D01*
M02*
