G04 #@! TF.GenerationSoftware,KiCad,Pcbnew,(5.1.5)-3*
G04 #@! TF.CreationDate,2021-03-18T13:29:50-04:00*
G04 #@! TF.ProjectId,LED_Harness_3x2_RED+BLUE,4c45445f-4861-4726-9e65-73735f337832,rev?*
G04 #@! TF.SameCoordinates,Original*
G04 #@! TF.FileFunction,Legend,Top*
G04 #@! TF.FilePolarity,Positive*
%FSLAX46Y46*%
G04 Gerber Fmt 4.6, Leading zero omitted, Abs format (unit mm)*
G04 Created by KiCad (PCBNEW (5.1.5)-3) date 2021-03-18 13:29:50*
%MOMM*%
%LPD*%
G04 APERTURE LIST*
%ADD10C,0.254000*%
%ADD11C,0.150000*%
G04 APERTURE END LIST*
D10*
X160544449Y-124267443D02*
X159939687Y-124267443D01*
X159939687Y-122997443D01*
X160967782Y-123602205D02*
X161391116Y-123602205D01*
X161572544Y-124267443D02*
X160967782Y-124267443D01*
X160967782Y-122997443D01*
X161572544Y-122997443D01*
X162116830Y-124267443D02*
X162116830Y-122997443D01*
X162419211Y-122997443D01*
X162600640Y-123057920D01*
X162721592Y-123178872D01*
X162782068Y-123299824D01*
X162842544Y-123541729D01*
X162842544Y-123723158D01*
X162782068Y-123965062D01*
X162721592Y-124086015D01*
X162600640Y-124206967D01*
X162419211Y-124267443D01*
X162116830Y-124267443D01*
X163931116Y-123420777D02*
X163931116Y-124267443D01*
X163628735Y-122936967D02*
X163326354Y-123844110D01*
X164112544Y-123844110D01*
X156922409Y-121456933D02*
X156317647Y-121456933D01*
X156317647Y-120186933D01*
X157345742Y-120791695D02*
X157769076Y-120791695D01*
X157950504Y-121456933D02*
X157345742Y-121456933D01*
X157345742Y-120186933D01*
X157950504Y-120186933D01*
X158494790Y-121456933D02*
X158494790Y-120186933D01*
X158797171Y-120186933D01*
X158978600Y-120247410D01*
X159099552Y-120368362D01*
X159160028Y-120489314D01*
X159220504Y-120731219D01*
X159220504Y-120912648D01*
X159160028Y-121154552D01*
X159099552Y-121275505D01*
X158978600Y-121396457D01*
X158797171Y-121456933D01*
X158494790Y-121456933D01*
X159704314Y-120307886D02*
X159764790Y-120247410D01*
X159885742Y-120186933D01*
X160188123Y-120186933D01*
X160309076Y-120247410D01*
X160369552Y-120307886D01*
X160430028Y-120428838D01*
X160430028Y-120549790D01*
X160369552Y-120731219D01*
X159643838Y-121456933D01*
X160430028Y-121456933D01*
X156917329Y-118646423D02*
X156312567Y-118646423D01*
X156312567Y-117376423D01*
X157340662Y-117981185D02*
X157763996Y-117981185D01*
X157945424Y-118646423D02*
X157340662Y-118646423D01*
X157340662Y-117376423D01*
X157945424Y-117376423D01*
X158489710Y-118646423D02*
X158489710Y-117376423D01*
X158792091Y-117376423D01*
X158973520Y-117436900D01*
X159094472Y-117557852D01*
X159154948Y-117678804D01*
X159215424Y-117920709D01*
X159215424Y-118102138D01*
X159154948Y-118344042D01*
X159094472Y-118464995D01*
X158973520Y-118585947D01*
X158792091Y-118646423D01*
X158489710Y-118646423D01*
X159638758Y-117376423D02*
X160424948Y-117376423D01*
X160001615Y-117860233D01*
X160183043Y-117860233D01*
X160303996Y-117920709D01*
X160364472Y-117981185D01*
X160424948Y-118102138D01*
X160424948Y-118404519D01*
X160364472Y-118525471D01*
X160303996Y-118585947D01*
X160183043Y-118646423D01*
X159820186Y-118646423D01*
X159699234Y-118585947D01*
X159638758Y-118525471D01*
X156917329Y-124264903D02*
X156312567Y-124264903D01*
X156312567Y-122994903D01*
X157340662Y-123599665D02*
X157763996Y-123599665D01*
X157945424Y-124264903D02*
X157340662Y-124264903D01*
X157340662Y-122994903D01*
X157945424Y-122994903D01*
X158489710Y-124264903D02*
X158489710Y-122994903D01*
X158792091Y-122994903D01*
X158973520Y-123055380D01*
X159094472Y-123176332D01*
X159154948Y-123297284D01*
X159215424Y-123539189D01*
X159215424Y-123720618D01*
X159154948Y-123962522D01*
X159094472Y-124083475D01*
X158973520Y-124204427D01*
X158792091Y-124264903D01*
X158489710Y-124264903D01*
X160424948Y-124264903D02*
X159699234Y-124264903D01*
X160062091Y-124264903D02*
X160062091Y-122994903D01*
X159941139Y-123176332D01*
X159820186Y-123297284D01*
X159699234Y-123357760D01*
X160546989Y-121460743D02*
X159942227Y-121460743D01*
X159942227Y-120190743D01*
X160970322Y-120795505D02*
X161393656Y-120795505D01*
X161575084Y-121460743D02*
X160970322Y-121460743D01*
X160970322Y-120190743D01*
X161575084Y-120190743D01*
X162119370Y-121460743D02*
X162119370Y-120190743D01*
X162421751Y-120190743D01*
X162603180Y-120251220D01*
X162724132Y-120372172D01*
X162784608Y-120493124D01*
X162845084Y-120735029D01*
X162845084Y-120916458D01*
X162784608Y-121158362D01*
X162724132Y-121279315D01*
X162603180Y-121400267D01*
X162421751Y-121460743D01*
X162119370Y-121460743D01*
X163994132Y-120190743D02*
X163389370Y-120190743D01*
X163328894Y-120795505D01*
X163389370Y-120735029D01*
X163510322Y-120674553D01*
X163812703Y-120674553D01*
X163933656Y-120735029D01*
X163994132Y-120795505D01*
X164054608Y-120916458D01*
X164054608Y-121218839D01*
X163994132Y-121339791D01*
X163933656Y-121400267D01*
X163812703Y-121460743D01*
X163510322Y-121460743D01*
X163389370Y-121400267D01*
X163328894Y-121339791D01*
X160541909Y-118648963D02*
X159937147Y-118648963D01*
X159937147Y-117378963D01*
X160965242Y-117983725D02*
X161388576Y-117983725D01*
X161570004Y-118648963D02*
X160965242Y-118648963D01*
X160965242Y-117378963D01*
X161570004Y-117378963D01*
X162114290Y-118648963D02*
X162114290Y-117378963D01*
X162416671Y-117378963D01*
X162598100Y-117439440D01*
X162719052Y-117560392D01*
X162779528Y-117681344D01*
X162840004Y-117923249D01*
X162840004Y-118104678D01*
X162779528Y-118346582D01*
X162719052Y-118467535D01*
X162598100Y-118588487D01*
X162416671Y-118648963D01*
X162114290Y-118648963D01*
X163928576Y-117378963D02*
X163686671Y-117378963D01*
X163565719Y-117439440D01*
X163505242Y-117499916D01*
X163384290Y-117681344D01*
X163323814Y-117923249D01*
X163323814Y-118407059D01*
X163384290Y-118528011D01*
X163444766Y-118588487D01*
X163565719Y-118648963D01*
X163807623Y-118648963D01*
X163928576Y-118588487D01*
X163989052Y-118528011D01*
X164049528Y-118407059D01*
X164049528Y-118104678D01*
X163989052Y-117983725D01*
X163928576Y-117923249D01*
X163807623Y-117862773D01*
X163565719Y-117862773D01*
X163444766Y-117923249D01*
X163384290Y-117983725D01*
X163323814Y-118104678D01*
D11*
X140154066Y-102525580D02*
X140154066Y-103239866D01*
X140106447Y-103382723D01*
X140011209Y-103477961D01*
X139868352Y-103525580D01*
X139773114Y-103525580D01*
X141154066Y-103525580D02*
X140582638Y-103525580D01*
X140868352Y-103525580D02*
X140868352Y-102525580D01*
X140773114Y-102668438D01*
X140677876Y-102763676D01*
X140582638Y-102811295D01*
X161947266Y-125156980D02*
X161947266Y-125871266D01*
X161899647Y-126014123D01*
X161804409Y-126109361D01*
X161661552Y-126156980D01*
X161566314Y-126156980D01*
X162947266Y-126156980D02*
X162375838Y-126156980D01*
X162661552Y-126156980D02*
X162661552Y-125156980D01*
X162566314Y-125299838D01*
X162471076Y-125395076D01*
X162375838Y-125442695D01*
D10*
X143041309Y-59924163D02*
X142436547Y-59924163D01*
X142436547Y-58654163D01*
X143464642Y-59258925D02*
X143887976Y-59258925D01*
X144069404Y-59924163D02*
X143464642Y-59924163D01*
X143464642Y-58654163D01*
X144069404Y-58654163D01*
X144613690Y-59924163D02*
X144613690Y-58654163D01*
X144916071Y-58654163D01*
X145097500Y-58714640D01*
X145218452Y-58835592D01*
X145278928Y-58956544D01*
X145339404Y-59198449D01*
X145339404Y-59379878D01*
X145278928Y-59621782D01*
X145218452Y-59742735D01*
X145097500Y-59863687D01*
X144916071Y-59924163D01*
X144613690Y-59924163D01*
X146427976Y-58654163D02*
X146186071Y-58654163D01*
X146065119Y-58714640D01*
X146004642Y-58775116D01*
X145883690Y-58956544D01*
X145823214Y-59198449D01*
X145823214Y-59682259D01*
X145883690Y-59803211D01*
X145944166Y-59863687D01*
X146065119Y-59924163D01*
X146307023Y-59924163D01*
X146427976Y-59863687D01*
X146488452Y-59803211D01*
X146548928Y-59682259D01*
X146548928Y-59379878D01*
X146488452Y-59258925D01*
X146427976Y-59198449D01*
X146307023Y-59137973D01*
X146065119Y-59137973D01*
X145944166Y-59198449D01*
X145883690Y-59258925D01*
X145823214Y-59379878D01*
X139421809Y-62732133D02*
X138817047Y-62732133D01*
X138817047Y-61462133D01*
X139845142Y-62066895D02*
X140268476Y-62066895D01*
X140449904Y-62732133D02*
X139845142Y-62732133D01*
X139845142Y-61462133D01*
X140449904Y-61462133D01*
X140994190Y-62732133D02*
X140994190Y-61462133D01*
X141296571Y-61462133D01*
X141478000Y-61522610D01*
X141598952Y-61643562D01*
X141659428Y-61764514D01*
X141719904Y-62006419D01*
X141719904Y-62187848D01*
X141659428Y-62429752D01*
X141598952Y-62550705D01*
X141478000Y-62671657D01*
X141296571Y-62732133D01*
X140994190Y-62732133D01*
X142203714Y-61583086D02*
X142264190Y-61522610D01*
X142385142Y-61462133D01*
X142687523Y-61462133D01*
X142808476Y-61522610D01*
X142868952Y-61583086D01*
X142929428Y-61704038D01*
X142929428Y-61824990D01*
X142868952Y-62006419D01*
X142143238Y-62732133D01*
X142929428Y-62732133D01*
X139416729Y-65540103D02*
X138811967Y-65540103D01*
X138811967Y-64270103D01*
X139840062Y-64874865D02*
X140263396Y-64874865D01*
X140444824Y-65540103D02*
X139840062Y-65540103D01*
X139840062Y-64270103D01*
X140444824Y-64270103D01*
X140989110Y-65540103D02*
X140989110Y-64270103D01*
X141291491Y-64270103D01*
X141472920Y-64330580D01*
X141593872Y-64451532D01*
X141654348Y-64572484D01*
X141714824Y-64814389D01*
X141714824Y-64995818D01*
X141654348Y-65237722D01*
X141593872Y-65358675D01*
X141472920Y-65479627D01*
X141291491Y-65540103D01*
X140989110Y-65540103D01*
X142924348Y-65540103D02*
X142198634Y-65540103D01*
X142561491Y-65540103D02*
X142561491Y-64270103D01*
X142440539Y-64451532D01*
X142319586Y-64572484D01*
X142198634Y-64632960D01*
X139416729Y-59921623D02*
X138811967Y-59921623D01*
X138811967Y-58651623D01*
X139840062Y-59256385D02*
X140263396Y-59256385D01*
X140444824Y-59921623D02*
X139840062Y-59921623D01*
X139840062Y-58651623D01*
X140444824Y-58651623D01*
X140989110Y-59921623D02*
X140989110Y-58651623D01*
X141291491Y-58651623D01*
X141472920Y-58712100D01*
X141593872Y-58833052D01*
X141654348Y-58954004D01*
X141714824Y-59195909D01*
X141714824Y-59377338D01*
X141654348Y-59619242D01*
X141593872Y-59740195D01*
X141472920Y-59861147D01*
X141291491Y-59921623D01*
X140989110Y-59921623D01*
X142138158Y-58651623D02*
X142924348Y-58651623D01*
X142501015Y-59135433D01*
X142682443Y-59135433D01*
X142803396Y-59195909D01*
X142863872Y-59256385D01*
X142924348Y-59377338D01*
X142924348Y-59679719D01*
X142863872Y-59800671D01*
X142803396Y-59861147D01*
X142682443Y-59921623D01*
X142319586Y-59921623D01*
X142198634Y-59861147D01*
X142138158Y-59800671D01*
X143046389Y-62735943D02*
X142441627Y-62735943D01*
X142441627Y-61465943D01*
X143469722Y-62070705D02*
X143893056Y-62070705D01*
X144074484Y-62735943D02*
X143469722Y-62735943D01*
X143469722Y-61465943D01*
X144074484Y-61465943D01*
X144618770Y-62735943D02*
X144618770Y-61465943D01*
X144921151Y-61465943D01*
X145102580Y-61526420D01*
X145223532Y-61647372D01*
X145284008Y-61768324D01*
X145344484Y-62010229D01*
X145344484Y-62191658D01*
X145284008Y-62433562D01*
X145223532Y-62554515D01*
X145102580Y-62675467D01*
X144921151Y-62735943D01*
X144618770Y-62735943D01*
X146493532Y-61465943D02*
X145888770Y-61465943D01*
X145828294Y-62070705D01*
X145888770Y-62010229D01*
X146009722Y-61949753D01*
X146312103Y-61949753D01*
X146433056Y-62010229D01*
X146493532Y-62070705D01*
X146554008Y-62191658D01*
X146554008Y-62494039D01*
X146493532Y-62614991D01*
X146433056Y-62675467D01*
X146312103Y-62735943D01*
X146009722Y-62735943D01*
X145888770Y-62675467D01*
X145828294Y-62614991D01*
X143043849Y-65542643D02*
X142439087Y-65542643D01*
X142439087Y-64272643D01*
X143467182Y-64877405D02*
X143890516Y-64877405D01*
X144071944Y-65542643D02*
X143467182Y-65542643D01*
X143467182Y-64272643D01*
X144071944Y-64272643D01*
X144616230Y-65542643D02*
X144616230Y-64272643D01*
X144918611Y-64272643D01*
X145100040Y-64333120D01*
X145220992Y-64454072D01*
X145281468Y-64575024D01*
X145341944Y-64816929D01*
X145341944Y-64998358D01*
X145281468Y-65240262D01*
X145220992Y-65361215D01*
X145100040Y-65482167D01*
X144918611Y-65542643D01*
X144616230Y-65542643D01*
X146430516Y-64695977D02*
X146430516Y-65542643D01*
X146128135Y-64212167D02*
X145825754Y-65119310D01*
X146611944Y-65119310D01*
X112027909Y-124485883D02*
X111423147Y-124485883D01*
X111423147Y-123215883D01*
X112451242Y-123820645D02*
X112874576Y-123820645D01*
X113056004Y-124485883D02*
X112451242Y-124485883D01*
X112451242Y-123215883D01*
X113056004Y-123215883D01*
X113600290Y-124485883D02*
X113600290Y-123215883D01*
X113902671Y-123215883D01*
X114084100Y-123276360D01*
X114205052Y-123397312D01*
X114265528Y-123518264D01*
X114326004Y-123760169D01*
X114326004Y-123941598D01*
X114265528Y-124183502D01*
X114205052Y-124304455D01*
X114084100Y-124425407D01*
X113902671Y-124485883D01*
X113600290Y-124485883D01*
X115414576Y-123215883D02*
X115172671Y-123215883D01*
X115051719Y-123276360D01*
X114991242Y-123336836D01*
X114870290Y-123518264D01*
X114809814Y-123760169D01*
X114809814Y-124243979D01*
X114870290Y-124364931D01*
X114930766Y-124425407D01*
X115051719Y-124485883D01*
X115293623Y-124485883D01*
X115414576Y-124425407D01*
X115475052Y-124364931D01*
X115535528Y-124243979D01*
X115535528Y-123941598D01*
X115475052Y-123820645D01*
X115414576Y-123760169D01*
X115293623Y-123699693D01*
X115051719Y-123699693D01*
X114930766Y-123760169D01*
X114870290Y-123820645D01*
X114809814Y-123941598D01*
X115647409Y-121677913D02*
X115042647Y-121677913D01*
X115042647Y-120407913D01*
X116070742Y-121012675D02*
X116494076Y-121012675D01*
X116675504Y-121677913D02*
X116070742Y-121677913D01*
X116070742Y-120407913D01*
X116675504Y-120407913D01*
X117219790Y-121677913D02*
X117219790Y-120407913D01*
X117522171Y-120407913D01*
X117703600Y-120468390D01*
X117824552Y-120589342D01*
X117885028Y-120710294D01*
X117945504Y-120952199D01*
X117945504Y-121133628D01*
X117885028Y-121375532D01*
X117824552Y-121496485D01*
X117703600Y-121617437D01*
X117522171Y-121677913D01*
X117219790Y-121677913D01*
X118429314Y-120528866D02*
X118489790Y-120468390D01*
X118610742Y-120407913D01*
X118913123Y-120407913D01*
X119034076Y-120468390D01*
X119094552Y-120528866D01*
X119155028Y-120649818D01*
X119155028Y-120770770D01*
X119094552Y-120952199D01*
X118368838Y-121677913D01*
X119155028Y-121677913D01*
X115652489Y-118869943D02*
X115047727Y-118869943D01*
X115047727Y-117599943D01*
X116075822Y-118204705D02*
X116499156Y-118204705D01*
X116680584Y-118869943D02*
X116075822Y-118869943D01*
X116075822Y-117599943D01*
X116680584Y-117599943D01*
X117224870Y-118869943D02*
X117224870Y-117599943D01*
X117527251Y-117599943D01*
X117708680Y-117660420D01*
X117829632Y-117781372D01*
X117890108Y-117902324D01*
X117950584Y-118144229D01*
X117950584Y-118325658D01*
X117890108Y-118567562D01*
X117829632Y-118688515D01*
X117708680Y-118809467D01*
X117527251Y-118869943D01*
X117224870Y-118869943D01*
X119160108Y-118869943D02*
X118434394Y-118869943D01*
X118797251Y-118869943D02*
X118797251Y-117599943D01*
X118676299Y-117781372D01*
X118555346Y-117902324D01*
X118434394Y-117962800D01*
X115652489Y-124488423D02*
X115047727Y-124488423D01*
X115047727Y-123218423D01*
X116075822Y-123823185D02*
X116499156Y-123823185D01*
X116680584Y-124488423D02*
X116075822Y-124488423D01*
X116075822Y-123218423D01*
X116680584Y-123218423D01*
X117224870Y-124488423D02*
X117224870Y-123218423D01*
X117527251Y-123218423D01*
X117708680Y-123278900D01*
X117829632Y-123399852D01*
X117890108Y-123520804D01*
X117950584Y-123762709D01*
X117950584Y-123944138D01*
X117890108Y-124186042D01*
X117829632Y-124306995D01*
X117708680Y-124427947D01*
X117527251Y-124488423D01*
X117224870Y-124488423D01*
X118373918Y-123218423D02*
X119160108Y-123218423D01*
X118736775Y-123702233D01*
X118918203Y-123702233D01*
X119039156Y-123762709D01*
X119099632Y-123823185D01*
X119160108Y-123944138D01*
X119160108Y-124246519D01*
X119099632Y-124367471D01*
X119039156Y-124427947D01*
X118918203Y-124488423D01*
X118555346Y-124488423D01*
X118434394Y-124427947D01*
X118373918Y-124367471D01*
D11*
X134587466Y-102567780D02*
X134587466Y-103282066D01*
X134539847Y-103424923D01*
X134444609Y-103520161D01*
X134301752Y-103567780D01*
X134206514Y-103567780D01*
X135587466Y-103567780D02*
X135016038Y-103567780D01*
X135301752Y-103567780D02*
X135301752Y-102567780D01*
X135206514Y-102710638D01*
X135111276Y-102805876D01*
X135016038Y-102853495D01*
D10*
X112022829Y-121674103D02*
X111418067Y-121674103D01*
X111418067Y-120404103D01*
X112446162Y-121008865D02*
X112869496Y-121008865D01*
X113050924Y-121674103D02*
X112446162Y-121674103D01*
X112446162Y-120404103D01*
X113050924Y-120404103D01*
X113595210Y-121674103D02*
X113595210Y-120404103D01*
X113897591Y-120404103D01*
X114079020Y-120464580D01*
X114199972Y-120585532D01*
X114260448Y-120706484D01*
X114320924Y-120948389D01*
X114320924Y-121129818D01*
X114260448Y-121371722D01*
X114199972Y-121492675D01*
X114079020Y-121613627D01*
X113897591Y-121674103D01*
X113595210Y-121674103D01*
X115469972Y-120404103D02*
X114865210Y-120404103D01*
X114804734Y-121008865D01*
X114865210Y-120948389D01*
X114986162Y-120887913D01*
X115288543Y-120887913D01*
X115409496Y-120948389D01*
X115469972Y-121008865D01*
X115530448Y-121129818D01*
X115530448Y-121432199D01*
X115469972Y-121553151D01*
X115409496Y-121613627D01*
X115288543Y-121674103D01*
X114986162Y-121674103D01*
X114865210Y-121613627D01*
X114804734Y-121553151D01*
X112025369Y-118867403D02*
X111420607Y-118867403D01*
X111420607Y-117597403D01*
X112448702Y-118202165D02*
X112872036Y-118202165D01*
X113053464Y-118867403D02*
X112448702Y-118867403D01*
X112448702Y-117597403D01*
X113053464Y-117597403D01*
X113597750Y-118867403D02*
X113597750Y-117597403D01*
X113900131Y-117597403D01*
X114081560Y-117657880D01*
X114202512Y-117778832D01*
X114262988Y-117899784D01*
X114323464Y-118141689D01*
X114323464Y-118323118D01*
X114262988Y-118565022D01*
X114202512Y-118685975D01*
X114081560Y-118806927D01*
X113900131Y-118867403D01*
X113597750Y-118867403D01*
X115412036Y-118020737D02*
X115412036Y-118867403D01*
X115109655Y-117536927D02*
X114807274Y-118444070D01*
X115593464Y-118444070D01*
D11*
X113843666Y-79648780D02*
X113843666Y-80363066D01*
X113796047Y-80505923D01*
X113700809Y-80601161D01*
X113557952Y-80648780D01*
X113462714Y-80648780D01*
X114843666Y-80648780D02*
X114272238Y-80648780D01*
X114557952Y-80648780D02*
X114557952Y-79648780D01*
X114462714Y-79791638D01*
X114367476Y-79886876D01*
X114272238Y-79934495D01*
D10*
X130602929Y-65590903D02*
X129998167Y-65590903D01*
X129998167Y-64320903D01*
X131026262Y-64925665D02*
X131449596Y-64925665D01*
X131631024Y-65590903D02*
X131026262Y-65590903D01*
X131026262Y-64320903D01*
X131631024Y-64320903D01*
X132175310Y-65590903D02*
X132175310Y-64320903D01*
X132477691Y-64320903D01*
X132659120Y-64381380D01*
X132780072Y-64502332D01*
X132840548Y-64623284D01*
X132901024Y-64865189D01*
X132901024Y-65046618D01*
X132840548Y-65288522D01*
X132780072Y-65409475D01*
X132659120Y-65530427D01*
X132477691Y-65590903D01*
X132175310Y-65590903D01*
X134110548Y-65590903D02*
X133384834Y-65590903D01*
X133747691Y-65590903D02*
X133747691Y-64320903D01*
X133626739Y-64502332D01*
X133505786Y-64623284D01*
X133384834Y-64683760D01*
X130608009Y-62782933D02*
X130003247Y-62782933D01*
X130003247Y-61512933D01*
X131031342Y-62117695D02*
X131454676Y-62117695D01*
X131636104Y-62782933D02*
X131031342Y-62782933D01*
X131031342Y-61512933D01*
X131636104Y-61512933D01*
X132180390Y-62782933D02*
X132180390Y-61512933D01*
X132482771Y-61512933D01*
X132664200Y-61573410D01*
X132785152Y-61694362D01*
X132845628Y-61815314D01*
X132906104Y-62057219D01*
X132906104Y-62238648D01*
X132845628Y-62480552D01*
X132785152Y-62601505D01*
X132664200Y-62722457D01*
X132482771Y-62782933D01*
X132180390Y-62782933D01*
X133389914Y-61633886D02*
X133450390Y-61573410D01*
X133571342Y-61512933D01*
X133873723Y-61512933D01*
X133994676Y-61573410D01*
X134055152Y-61633886D01*
X134115628Y-61754838D01*
X134115628Y-61875790D01*
X134055152Y-62057219D01*
X133329438Y-62782933D01*
X134115628Y-62782933D01*
X130602929Y-59972423D02*
X129998167Y-59972423D01*
X129998167Y-58702423D01*
X131026262Y-59307185D02*
X131449596Y-59307185D01*
X131631024Y-59972423D02*
X131026262Y-59972423D01*
X131026262Y-58702423D01*
X131631024Y-58702423D01*
X132175310Y-59972423D02*
X132175310Y-58702423D01*
X132477691Y-58702423D01*
X132659120Y-58762900D01*
X132780072Y-58883852D01*
X132840548Y-59004804D01*
X132901024Y-59246709D01*
X132901024Y-59428138D01*
X132840548Y-59670042D01*
X132780072Y-59790995D01*
X132659120Y-59911947D01*
X132477691Y-59972423D01*
X132175310Y-59972423D01*
X133324358Y-58702423D02*
X134110548Y-58702423D01*
X133687215Y-59186233D01*
X133868643Y-59186233D01*
X133989596Y-59246709D01*
X134050072Y-59307185D01*
X134110548Y-59428138D01*
X134110548Y-59730519D01*
X134050072Y-59851471D01*
X133989596Y-59911947D01*
X133868643Y-59972423D01*
X133505786Y-59972423D01*
X133384834Y-59911947D01*
X133324358Y-59851471D01*
X134230049Y-65593443D02*
X133625287Y-65593443D01*
X133625287Y-64323443D01*
X134653382Y-64928205D02*
X135076716Y-64928205D01*
X135258144Y-65593443D02*
X134653382Y-65593443D01*
X134653382Y-64323443D01*
X135258144Y-64323443D01*
X135802430Y-65593443D02*
X135802430Y-64323443D01*
X136104811Y-64323443D01*
X136286240Y-64383920D01*
X136407192Y-64504872D01*
X136467668Y-64625824D01*
X136528144Y-64867729D01*
X136528144Y-65049158D01*
X136467668Y-65291062D01*
X136407192Y-65412015D01*
X136286240Y-65532967D01*
X136104811Y-65593443D01*
X135802430Y-65593443D01*
X137616716Y-64746777D02*
X137616716Y-65593443D01*
X137314335Y-64262967D02*
X137011954Y-65170110D01*
X137798144Y-65170110D01*
X134232589Y-62786743D02*
X133627827Y-62786743D01*
X133627827Y-61516743D01*
X134655922Y-62121505D02*
X135079256Y-62121505D01*
X135260684Y-62786743D02*
X134655922Y-62786743D01*
X134655922Y-61516743D01*
X135260684Y-61516743D01*
X135804970Y-62786743D02*
X135804970Y-61516743D01*
X136107351Y-61516743D01*
X136288780Y-61577220D01*
X136409732Y-61698172D01*
X136470208Y-61819124D01*
X136530684Y-62061029D01*
X136530684Y-62242458D01*
X136470208Y-62484362D01*
X136409732Y-62605315D01*
X136288780Y-62726267D01*
X136107351Y-62786743D01*
X135804970Y-62786743D01*
X137679732Y-61516743D02*
X137074970Y-61516743D01*
X137014494Y-62121505D01*
X137074970Y-62061029D01*
X137195922Y-62000553D01*
X137498303Y-62000553D01*
X137619256Y-62061029D01*
X137679732Y-62121505D01*
X137740208Y-62242458D01*
X137740208Y-62544839D01*
X137679732Y-62665791D01*
X137619256Y-62726267D01*
X137498303Y-62786743D01*
X137195922Y-62786743D01*
X137074970Y-62726267D01*
X137014494Y-62665791D01*
X134227509Y-59974963D02*
X133622747Y-59974963D01*
X133622747Y-58704963D01*
X134650842Y-59309725D02*
X135074176Y-59309725D01*
X135255604Y-59974963D02*
X134650842Y-59974963D01*
X134650842Y-58704963D01*
X135255604Y-58704963D01*
X135799890Y-59974963D02*
X135799890Y-58704963D01*
X136102271Y-58704963D01*
X136283700Y-58765440D01*
X136404652Y-58886392D01*
X136465128Y-59007344D01*
X136525604Y-59249249D01*
X136525604Y-59430678D01*
X136465128Y-59672582D01*
X136404652Y-59793535D01*
X136283700Y-59914487D01*
X136102271Y-59974963D01*
X135799890Y-59974963D01*
X137614176Y-58704963D02*
X137372271Y-58704963D01*
X137251319Y-58765440D01*
X137190842Y-58825916D01*
X137069890Y-59007344D01*
X137009414Y-59249249D01*
X137009414Y-59733059D01*
X137069890Y-59854011D01*
X137130366Y-59914487D01*
X137251319Y-59974963D01*
X137493223Y-59974963D01*
X137614176Y-59914487D01*
X137674652Y-59854011D01*
X137735128Y-59733059D01*
X137735128Y-59430678D01*
X137674652Y-59309725D01*
X137614176Y-59249249D01*
X137493223Y-59188773D01*
X137251319Y-59188773D01*
X137130366Y-59249249D01*
X137069890Y-59309725D01*
X137009414Y-59430678D01*
M02*
