G04 #@! TF.GenerationSoftware,KiCad,Pcbnew,(5.1.5)-3*
G04 #@! TF.CreationDate,2021-03-18T13:29:50-04:00*
G04 #@! TF.ProjectId,LED_Harness_3x2_RED+BLUE,4c45445f-4861-4726-9e65-73735f337832,rev?*
G04 #@! TF.SameCoordinates,Original*
G04 #@! TF.FileFunction,Soldermask,Top*
G04 #@! TF.FilePolarity,Negative*
%FSLAX46Y46*%
G04 Gerber Fmt 4.6, Leading zero omitted, Abs format (unit mm)*
G04 Created by KiCad (PCBNEW (5.1.5)-3) date 2021-03-18 13:29:50*
%MOMM*%
%LPD*%
G04 APERTURE LIST*
%ADD10R,1.500000X2.250000*%
%ADD11R,0.300000X25.000000*%
G04 APERTURE END LIST*
D10*
X163014660Y-123705620D03*
X160916620Y-123690380D03*
X157294580Y-120869710D03*
X159392620Y-120884950D03*
X159387540Y-118074440D03*
X157289500Y-118059200D03*
X159387540Y-123692920D03*
X157289500Y-123677680D03*
X160919160Y-120883680D03*
X163017200Y-120898920D03*
X163012120Y-118087140D03*
X160914080Y-118071900D03*
D11*
X141237400Y-80247200D03*
X140737400Y-80247200D03*
X140237400Y-80247200D03*
X139737400Y-80247200D03*
X163030600Y-102878600D03*
X162530600Y-102878600D03*
X162030600Y-102878600D03*
X161530600Y-102878600D03*
D10*
X143413480Y-59347100D03*
X145511520Y-59362340D03*
X141892020Y-62160150D03*
X139793980Y-62144910D03*
X139788900Y-64952880D03*
X141886940Y-64968120D03*
X139788900Y-59334400D03*
X141886940Y-59349640D03*
X145516600Y-62174120D03*
X143418560Y-62158880D03*
X143416020Y-64965580D03*
X145514060Y-64980820D03*
X114498120Y-123913900D03*
X112400080Y-123898660D03*
X116019580Y-121100850D03*
X118117620Y-121116090D03*
X118122700Y-118308120D03*
X116024660Y-118292880D03*
X118122700Y-123926600D03*
X116024660Y-123911360D03*
D11*
X134170800Y-80289400D03*
X134670800Y-80289400D03*
X135170800Y-80289400D03*
X135670800Y-80289400D03*
D10*
X112395000Y-121086880D03*
X114493040Y-121102120D03*
X114495580Y-118295420D03*
X112397540Y-118280180D03*
D11*
X113427000Y-103022400D03*
X113927000Y-103022400D03*
X114427000Y-103022400D03*
X114927000Y-103022400D03*
D10*
X133073140Y-65018920D03*
X130975100Y-65003680D03*
X130980180Y-62195710D03*
X133078220Y-62210950D03*
X133073140Y-59400440D03*
X130975100Y-59385200D03*
X136700260Y-65031620D03*
X134602220Y-65016380D03*
X134604760Y-62209680D03*
X136702800Y-62224920D03*
X136697720Y-59413140D03*
X134599680Y-59397900D03*
M02*
