<?xml version="1.0" encoding="utf-8"?>
<!-- Generator: Adobe Illustrator 25.4.1, SVG Export Plug-In . SVG Version: 6.00 Build 0)  -->
<svg version="1.1" id="Layer_1" xmlns="http://www.w3.org/2000/svg" xmlns:xlink="http://www.w3.org/1999/xlink" x="0px" y="0px"
	 viewBox="0 0 2560 1920" style="enable-background:new 0 0 2560 1920;" xml:space="preserve">
<style type="text/css">
	.st0{fill:none;stroke:#000000;stroke-width:15;stroke-linecap:round;stroke-linejoin:round;stroke-miterlimit:10;}
	.st1{fill:none;stroke:#000000;stroke-width:10;stroke-linecap:round;stroke-linejoin:round;stroke-miterlimit:10;}
	.st2{stroke:#231F20;stroke-miterlimit:10;}
</style>
<g>
	<g>
		<polyline class="st0" points="1429.21,639.16 1375.42,779.53 1182.35,779.53 1128.57,639.16 		"/>
		<polyline class="st0" points="1375.42,779.53 1325.41,849.98 1307.39,906.99 1250.38,906.99 1232.63,849.98 1182.35,779.53 		"/>
		<path class="st0" d="M1471.69,484v107.83c0,26.35-21.24,47.6-47.6,47.6h-290.42c-26.35,0-47.6-21.24-47.6-47.6V484"/>
	</g>
	<line class="st0" x1="1277.81" y1="908.06" x2="1277.81" y2="1133.95"/>
	<rect x="640.5" y="350.08" class="st0" width="1280" height="1220.84"/>
	<polyline class="st1" points="1534.62,558.48 1655.63,558.48 1655.63,1322.18 1558.82,1322.18 	"/>
	<polyline class="st1" points="975.29,1322.18 891.93,1322.18 891.93,558.48 1015.63,558.48 	"/>
	<line class="st1" x1="640.5" y1="350.08" x2="898.65" y2="551.76"/>
	<line class="st1" x1="1662.35" y1="551.76" x2="1920.5" y2="350.08"/>
	<line class="st1" x1="1662.35" y1="1315.46" x2="1920.5" y2="1570.92"/>
	<line class="st1" x1="898.65" y1="1315.46" x2="640.5" y2="1570.92"/>
	<g>
		<path class="st2" d="M1086.62,1317.88c0,11.83,1.88,21.51,5.65,29.31c6.99,14.25,19.9,21.24,38.18,21.24
			c11.29,0,21.24-3.76,29.58-11.56s12.64-19.09,12.64-33.61c0-19.36-7.8-32.27-23.4-38.72c-8.87-3.76-22.86-5.38-41.95-5.38v-41.41
			c18.82-0.27,31.73-2.15,39.26-5.38c12.91-5.65,19.09-17.21,19.09-34.42c0-11.29-3.23-20.44-9.68-27.43
			c-6.45-6.99-15.87-10.49-27.7-10.49c-13.71,0-23.66,4.3-30.12,12.91s-9.41,20.17-9.14,34.69h-54.05
			c0.54-14.52,2.96-28.5,7.53-41.68c4.84-11.56,12.1-22.05,22.32-31.73c7.53-6.99,16.67-12.1,26.89-15.87s23.13-5.38,38.18-5.38
			c27.97,0,50.82,7.26,68.03,21.78c17.21,14.52,25.82,34.15,25.82,58.62c0,17.21-5.11,32-15.33,43.83
			c-6.45,7.53-13.18,12.64-20.17,15.33c5.38,0,12.91,4.57,22.59,13.71c14.79,13.71,22.05,32.27,22.05,55.93
			c0,25.01-8.6,46.79-25.82,65.61c-17.21,18.82-42.76,28.24-76.37,28.24c-41.68,0-70.45-13.71-86.86-40.87
			c-8.6-14.52-13.18-33.34-14.25-56.74L1086.62,1317.88L1086.62,1317.88z"/>
		<path class="st2" d="M1432.7,1115.66c20.97,6.99,37.92,19.63,51.09,37.92c10.49,14.79,17.48,30.92,21.24,48.4
			c3.76,17.21,5.65,33.88,5.65,49.48c0,39.8-8.07,73.41-23.93,101.11c-21.78,37.11-55.13,55.66-100.3,55.66h-128.81v-299.03h128.81
			C1405,1109.47,1420.6,1111.63,1432.7,1115.66z M1318.15,1161.11v195.23h57.82c29.58,0,50.02-14.52,61.85-43.56
			c6.45-15.87,9.68-34.96,9.68-57.01c0-30.39-4.84-53.78-14.25-70.18c-9.68-16.4-28.5-24.47-57.01-24.47L1318.15,1161.11
			L1318.15,1161.11z"/>
	</g>
</g>
</svg>
