<?xml version="1.0" encoding="utf-8"?>
<!-- Generator: Adobe Illustrator 25.4.1, SVG Export Plug-In . SVG Version: 6.00 Build 0)  -->
<svg version="1.1" id="Layer_1" xmlns="http://www.w3.org/2000/svg" xmlns:xlink="http://www.w3.org/1999/xlink" x="0px" y="0px"
	 viewBox="0 0 500 500" style="enable-background:new 0 0 500 500;" xml:space="preserve">
<style type="text/css">
	.st0{fill:none;stroke:#000000;stroke-width:15;stroke-linecap:round;stroke-linejoin:round;stroke-miterlimit:10;}
	.st1{fill:none;stroke:#000000;stroke-width:10;stroke-linecap:round;stroke-linejoin:round;stroke-miterlimit:10;}
	.st2{stroke:#231F20;stroke-miterlimit:10;}
</style>
<g>
	<polyline class="st0" points="305.8,131 285.8,183.2 214,183.2 194,131 	"/>
	<polyline class="st0" points="285.8,183.2 267.2,209.4 260.5,230.6 239.3,230.6 232.7,209.4 214,183.2 	"/>
	<path class="st0" d="M321.6,73.3v40.1c0,9.8-7.9,17.7-17.7,17.7h-108c-9.8,0-17.7-7.9-17.7-17.7V73.3"/>
</g>
<line class="st0" x1="249.5" y1="231" x2="249.5" y2="315"/>
<rect x="12.5" y="23.5" class="st0" width="476" height="454"/>
<polyline class="st1" points="345,101 390,101 390,385 354,385 "/>
<polyline class="st1" points="137,385 106,385 106,101 152,101 "/>
<line class="st1" x1="12.5" y1="23.5" x2="108.5" y2="98.5"/>
<line class="st1" x1="392.5" y1="98.5" x2="488.5" y2="23.5"/>
<line class="st1" x1="392.5" y1="382.5" x2="488.5" y2="477.5"/>
<line class="st1" x1="108.5" y1="382.5" x2="12.5" y2="477.5"/>
<g>
	<path class="st2" d="M178.4,383.4c0,4.4,0.7,8,2.1,10.9c2.6,5.3,7.4,7.9,14.2,7.9c4.2,0,7.9-1.4,11-4.3s4.7-7.1,4.7-12.5
		c0-7.2-2.9-12-8.7-14.4c-3.3-1.4-8.5-2-15.6-2v-15.4c7-0.1,11.8-0.8,14.6-2c4.8-2.1,7.1-6.4,7.1-12.8c0-4.2-1.2-7.6-3.6-10.2
		s-5.9-3.9-10.3-3.9c-5.1,0-8.8,1.6-11.2,4.8c-2.4,3.2-3.5,7.5-3.4,12.9h-20.1c0.2-5.4,1.1-10.6,2.8-15.5c1.8-4.3,4.5-8.2,8.3-11.8
		c2.8-2.6,6.2-4.5,10-5.9s8.6-2,14.2-2c10.4,0,18.9,2.7,25.3,8.1c6.4,5.4,9.6,12.7,9.6,21.8c0,6.4-1.9,11.9-5.7,16.3
		c-2.4,2.8-4.9,4.7-7.5,5.7c2,0,4.8,1.7,8.4,5.1c5.5,5.1,8.2,12,8.2,20.8c0,9.3-3.2,17.4-9.6,24.4c-6.4,7-15.9,10.5-28.4,10.5
		c-15.5,0-26.2-5.1-32.3-15.2c-3.2-5.4-4.9-12.4-5.3-21.1L178.4,383.4L178.4,383.4z"/>
	<path class="st2" d="M307.1,308.2c7.8,2.6,14.1,7.3,19,14.1c3.9,5.5,6.5,11.5,7.9,18c1.4,6.4,2.1,12.6,2.1,18.4
		c0,14.8-3,27.3-8.9,37.6c-8.1,13.8-20.5,20.7-37.3,20.7H242V305.8h47.9C296.8,305.9,302.6,306.7,307.1,308.2z M264.5,325.1v72.6
		H286c11,0,18.6-5.4,23-16.2c2.4-5.9,3.6-13,3.6-21.2c0-11.3-1.8-20-5.3-26.1c-3.6-6.1-10.6-9.1-21.2-9.1L264.5,325.1L264.5,325.1z"
		/>
</g>
</svg>
