<?xml version="1.0" encoding="utf-8"?>
<!-- Generator: Adobe Illustrator 25.4.1, SVG Export Plug-In . SVG Version: 6.00 Build 0)  -->
<svg version="1.1" id="Layer_1" xmlns="http://www.w3.org/2000/svg" xmlns:xlink="http://www.w3.org/1999/xlink" x="0px" y="0px"
	 viewBox="0 0 108 108" style="enable-background:new 0 0 108 108;" xml:space="preserve">
<polygon points="40,69 40,70 42,70 42,69 42,68 40,68 "/>
<polygon points="44,69 44,70 46,70 46,69 46,68 44,68 "/>
<polygon points="48,69 48,70 50,70 50,69 50,68 48,68 "/>
<polygon points="52,69 52,70 54,70 54,69 54,68 52,68 "/>
<polygon points="56,69 56,70 58,70 58,69 58,68 56,68 "/>
<polygon points="60,69 60,70 62,70 62,69 62,68 60,68 "/>
<polygon points="64,69 64,70 66,70 66,69 66,68 64,68 "/>
<polygon points="68,69 68,70 70,70 70,69 70,68 68,68 "/>
<polygon points="72,69 72,70 74,70 74,69 74,68 72,68 "/>
<polygon points="76,69 76,70 78,70 78,69 78,68 76,68 "/>
<polygon points="80,69 80,70 82,70 82,69 82,68 80,68 "/>
<polygon points="84,69 84,70 86,70 86,69 86,68 84,68 "/>
<polygon points="11,72 11,71 11,70 10,70 9,70 9,71 9,72 10,72 "/>
<polygon points="11,69 11,67 10,67 9,67 9,69 10,69 "/>
<polygon points="11,53 11,52 11,51 10,51 9,51 9,52 9,53 10,53 "/>
<polygon points="11,50 11,48 10,48 9,48 9,50 10,50 "/>
<polygon points="70,22 70,21 70,20 69.9,20 68,20 68,21 68,22 69.2,22 "/>
<polygon points="74.2,22 75,22 75,21 75,20 74.9,20 73.9,20 73,20 73,21 73,22 73.2,22 "/>
<path d="M89,19v-3h-8v3h-2v-3H64v3h-5v-3h-8v3h-4v-3h-8v3H9v4H5v19h4v2H5v17h4v2H5v17h4v8h94V19H89z M83,20v-2h4v3h-4V20z M83,24v-1
	h4v2h-4V24z M66,25v-7h11v9H66V25z M66,29h11v2H66V29z M53,34h2v-2h-2v-2h2v-2h-2v-2h2v-2h-2v-2h2v-2h-2v-2h4v18h-4V34z M53,38h4v2
	h-4V38z M41,18h4v1h-4V18z M39,30.5V21h8v12h-8V30.5z M39,35h8v2h-8V35z M7,31v-6h17v9H7V31z M7,40v-4h17v4H7z M7,52v-6h14v9H7V52z
	 M7,59v-2h14v2H7z M7,71v-6h14v9H7V71z M9,78H7v-2h14v2H9z M101,86H11v-2h90V86z M101,23v59H11v-2h12V63H11v-2h12V44H11v-2h15V23H11
	v-2h26v18h12V21h2v21h8V21h5v12h15V21h2v6h8v-6h12V23z"/>
<path d="M36,69v11h54V65H36V69z M38,70v-3h50v4H38V70z M38,73h50v5H38V73z"/>
<path d="M65,63h18c1.7,0,3-1.3,3-3V43c0-1.7-1.3-3-3-3H65c-1.7,0-3,1.3-3,3v17C62,61.7,63.3,63,65,63z M64,47v-4c0-0.6,0.4-1,1-1h18
	c0.6,0,1,0.4,1,1v13c0,0.6-0.4,1-1,1H65c-0.6,0-1-0.4-1-1V47z M64,58.8c0.3,0.1,0.7,0.2,1,0.2h18c0.3,0,0.7-0.1,1-0.2V60
	c0,0.6-0.4,1-1,1H65c-0.6,0-1-0.4-1-1V58.8z"/>
<path d="M29,49v11c0,1.7,1.3,3,3,3h9c1.7,0,3-1.3,3-3V49c0-1.7-1.3-3-3-3h-9C30.3,46,29,47.3,29,49z M42,60c0,0.6-0.4,1-1,1h-9
	c-0.6,0-1-0.4-1-1v-1.2c0.3,0.1,0.7,0.2,1,0.2h9c0.3,0,0.7-0.1,1-0.2V60z M37.9,48H41c0.6,0,1,0.4,1,1v7c0,0.6-0.4,1-1,1h-9
	c-0.6,0-1-0.4-1-1v-7c0-0.6,0.4-1,1-1H37.9z"/>
<path d="M99,59V37h-8v26h8V59z M97,61h-4v-2h4V61z M97,41h-2v2h2v2h-2v2h2v2h-2v2h2v2h-2v2h2v2h-4V39h4V41z"/>
<path d="M95.5,74c-1.6,0.3-2.7,1.8-2.5,3.5s1.8,2.7,3.5,2.5c1.4-0.2,2.5-1.5,2.5-2.9C98.9,75.2,97.3,73.9,95.5,74z M95.5,78
	c-0.5-0.2-0.8-0.9-0.6-1.4c0.2-0.5,0.9-0.8,1.4-0.6c0.4,0.2,0.7,0.6,0.7,1C96.8,77.7,96.2,78.1,95.5,78z"/>
<path d="M95.5,29c1.8,0.1,3.4-1.2,3.5-3c0-0.3-0.1-0.7-0.2-1c-0.2-0.4-0.4-0.7-0.7-1c-1.5-1.3-3.7-1.3-5.2,0c-0.3,0.3-0.5,0.6-0.7,1
	c-0.1,0.3-0.2,0.7-0.2,1C92.1,27.8,93.7,29.1,95.5,29z M95.5,25c0.7-0.1,1.3,0.3,1.5,1c-0.4,0.8-1.3,1.2-2.1,0.9
	c-0.4-0.2-0.7-0.5-0.9-0.9C94.2,25.3,94.8,24.9,95.5,25z"/>
<path d="M31.5,29c1.8,0.1,3.4-1.2,3.5-3c0-0.3-0.1-0.7-0.2-1c-0.2-0.4-0.4-0.7-0.7-1c-1.5-1.3-3.7-1.3-5.2,0c-0.3,0.3-0.5,0.6-0.7,1
	c-0.1,0.3-0.2,0.7-0.2,1C28.1,27.8,29.7,29.1,31.5,29z M31.5,25c0.7-0.1,1.3,0.3,1.5,1c-0.2,0.7-0.8,1.1-1.5,1
	c-0.7,0.1-1.3-0.3-1.5-1C30.2,25.3,30.8,24.9,31.5,25z"/>
<path d="M30.5,74c-1.7,0-3,1.3-3,3s1.3,3,3,3l0,0c1.7,0,3-1.3,3-3S32.2,74,30.5,74z M30.5,78c-0.6,0.2-1.2,0-1.4-0.6
	c-0.2-0.6,0-1.2,0.6-1.4c0.3-0.1,0.6-0.1,0.8,0c0.6-0.2,1.2,0,1.4,0.6s0,1.2-0.6,1.4C31.1,78.1,30.8,78.1,30.5,78z"/>
</svg>
