<?xml version="1.0" encoding="utf-8"?>
<!-- Generator: Adobe Illustrator 25.4.1, SVG Export Plug-In . SVG Version: 6.00 Build 0)  -->
<svg version="1.1" id="Layer_1" xmlns="http://www.w3.org/2000/svg" xmlns:xlink="http://www.w3.org/1999/xlink" x="0px" y="0px"
	 viewBox="0 0 2560 1920" style="enable-background:new 0 0 2560 1920;" xml:space="preserve">
<polygon points="1097.14,1180.04 1097.14,1193.1 1123.27,1193.1 1123.27,1180.04 1123.27,1166.98 1097.14,1166.98 "/>
<polygon points="1149.39,1180.04 1149.39,1193.1 1175.51,1193.1 1175.51,1180.04 1175.51,1166.98 1149.39,1166.98 "/>
<polygon points="1201.63,1180.04 1201.63,1193.1 1227.76,1193.1 1227.76,1180.04 1227.76,1166.98 1201.63,1166.98 "/>
<polygon points="1253.88,1180.04 1253.88,1193.1 1280,1193.1 1280,1180.04 1280,1166.98 1253.88,1166.98 "/>
<polygon points="1306.12,1180.04 1306.12,1193.1 1332.24,1193.1 1332.24,1180.04 1332.24,1166.98 1306.12,1166.98 "/>
<polygon points="1358.37,1180.04 1358.37,1193.1 1384.49,1193.1 1384.49,1180.04 1384.49,1166.98 1358.37,1166.98 "/>
<polygon points="1410.61,1180.04 1410.61,1193.1 1436.73,1193.1 1436.73,1180.04 1436.73,1166.98 1410.61,1166.98 "/>
<polygon points="1462.86,1180.04 1462.86,1193.1 1488.98,1193.1 1488.98,1180.04 1488.98,1166.98 1462.86,1166.98 "/>
<polygon points="1515.1,1180.04 1515.1,1193.1 1541.22,1193.1 1541.22,1180.04 1541.22,1166.98 1515.1,1166.98 "/>
<polygon points="1567.35,1180.04 1567.35,1193.1 1593.47,1193.1 1593.47,1180.04 1593.47,1166.98 1567.35,1166.98 "/>
<polygon points="1619.59,1180.04 1619.59,1193.1 1645.71,1193.1 1645.71,1180.04 1645.71,1166.98 1619.59,1166.98 "/>
<polygon points="1671.84,1180.04 1671.84,1193.1 1697.96,1193.1 1697.96,1180.04 1697.96,1166.98 1671.84,1166.98 "/>
<polygon points="718.37,1219.22 718.37,1206.16 718.37,1193.1 705.31,1193.1 692.24,1193.1 692.24,1206.16 692.24,1219.22 
	705.31,1219.22 "/>
<polygon points="718.37,1180.04 718.37,1153.92 705.31,1153.92 692.24,1153.92 692.24,1180.04 705.31,1180.04 "/>
<polygon points="718.37,971.06 718.37,958 718.37,944.94 705.31,944.94 692.24,944.94 692.24,958 692.24,971.06 705.31,971.06 "/>
<polygon points="718.37,931.88 718.37,905.76 705.31,905.76 692.24,905.76 692.24,931.88 705.31,931.88 "/>
<polygon points="1488.98,566.16 1488.98,553.1 1488.98,540.04 1487.67,540.04 1462.86,540.04 1462.86,553.1 1462.86,566.16 
	1478.53,566.16 "/>
<polygon points="1543.84,566.16 1554.29,566.16 1554.29,553.1 1554.29,540.04 1552.98,540.04 1539.92,540.04 1528.16,540.04 
	1528.16,553.1 1528.16,566.16 1530.78,566.16 "/>
<path d="M1737.14,526.98V487.8h-104.49v39.18h-26.12V487.8h-195.92v39.18h-65.31V487.8h-104.49v39.18h-52.24V487.8h-104.49v39.18
	H692.24v52.24H640v248.16h52.24v26.12H640v222.04h52.24v26.12H640v222.04h52.24v104.49H1920V526.98H1737.14z M1658.78,540.04v-26.12
	h52.24v39.18h-52.24V540.04z M1658.78,592.29v-13.06h52.24v26.12h-52.24V592.29z M1436.73,605.35v-91.43h143.67v117.55h-143.67
	V605.35z M1436.73,657.59h143.67v26.12h-143.67V657.59z M1266.94,722.9h26.12v-26.12h-26.12v-26.12h26.12v-26.12h-26.12v-26.12
	h26.12v-26.12h-26.12v-26.12h26.12v-26.12h-26.12v-26.12h52.24v235.1h-52.24V722.9z M1266.94,775.14h52.24v26.12h-52.24V775.14z
	 M1110.2,513.92h52.24v13.06h-52.24V513.92z M1084.08,677.18V553.1h104.49v156.73h-104.49V677.18z M1084.08,735.96h104.49v26.12
	h-104.49V735.96z M666.12,683.71v-78.37h222.04V722.9H666.12V683.71z M666.12,801.27v-52.24h222.04v52.24H666.12z M666.12,958
	v-78.37h182.86v117.55H666.12V958z M666.12,1049.43v-26.12h182.86v26.12H666.12z M666.12,1206.16v-78.37h182.86v117.55H666.12
	V1206.16z M692.24,1297.59h-26.12v-26.12h182.86v26.12H692.24z M1893.88,1402.08H718.37v-26.12h1175.51V1402.08z M1893.88,579.22
	v770.61H718.37v-26.12H875.1v-222.04H718.37v-26.12H875.1V853.51H718.37v-26.12h195.92V579.22H718.37V553.1h339.59v235.1h156.73
	V553.1h26.12v274.29h104.49V553.1h65.31v156.73h195.92V553.1h26.12v78.37h104.49V553.1h156.73V579.22z"/>
<path d="M1044.9,1180.04v143.67h705.31V1127.8H1044.9V1180.04z M1071.02,1193.1v-39.18h653.06v52.24h-653.06V1193.1z
	 M1071.02,1232.29h653.06v65.31h-653.06V1232.29z"/>
<path d="M1423.67,1101.67h235.1c22.2,0,39.18-16.98,39.18-39.18V840.45c0-22.2-16.98-39.18-39.18-39.18h-235.1
	c-22.2,0-39.18,16.98-39.18,39.18v222.04C1384.49,1084.69,1401.47,1101.67,1423.67,1101.67z M1410.61,892.69v-52.24
	c0-7.84,5.22-13.06,13.06-13.06h235.1c7.84,0,13.06,5.22,13.06,13.06v169.8c0,7.84-5.22,13.06-13.06,13.06h-235.1
	c-7.84,0-13.06-5.22-13.06-13.06V892.69z M1410.61,1046.82c3.92,1.31,9.14,2.61,13.06,2.61h235.1c3.92,0,9.14-1.31,13.06-2.61v15.67
	c0,7.84-5.22,13.06-13.06,13.06h-235.1c-7.84,0-13.06-5.22-13.06-13.06V1046.82z"/>
<path d="M953.47,918.82v143.67c0,22.2,16.98,39.18,39.18,39.18h117.55c22.2,0,39.18-16.98,39.18-39.18V918.82
	c0-22.2-16.98-39.18-39.18-39.18H992.65C970.45,879.63,953.47,896.61,953.47,918.82z M1123.27,1062.49
	c0,7.84-5.22,13.06-13.06,13.06H992.65c-7.84,0-13.06-5.22-13.06-13.06v-15.67c3.92,1.31,9.14,2.61,13.06,2.61h117.55
	c3.92,0,9.14-1.31,13.06-2.61V1062.49z M1069.71,905.76h40.49c7.84,0,13.06,5.22,13.06,13.06v91.43c0,7.84-5.22,13.06-13.06,13.06
	H992.65c-7.84,0-13.06-5.22-13.06-13.06v-91.43c0-7.84,5.22-13.06,13.06-13.06H1069.71z"/>
<path d="M1867.76,1049.43V762.08h-104.49v339.59h104.49V1049.43z M1841.63,1075.55h-52.24v-26.12h52.24V1075.55z M1841.63,814.33
	h-26.12v26.12h26.12v26.12h-26.12v26.12h26.12v26.12h-26.12v26.12h26.12v26.12h-26.12v26.12h26.12v26.12h-52.24V788.2h52.24V814.33z
	"/>
<path d="M1822.04,1245.35c-20.9,3.92-35.27,23.51-32.65,45.71c2.61,22.2,23.51,35.27,45.71,32.65
	c18.29-2.61,32.65-19.59,32.65-37.88C1866.45,1261.02,1845.55,1244.04,1822.04,1245.35z M1822.04,1297.59
	c-6.53-2.61-10.45-11.76-7.84-18.29c2.61-6.53,11.76-10.45,18.29-7.84c5.22,2.61,9.14,7.84,9.14,13.06
	C1839.02,1293.67,1831.18,1298.9,1822.04,1297.59z"/>
<path d="M1822.04,657.59c23.51,1.31,44.41-15.67,45.71-39.18c0-3.92-1.31-9.14-2.61-13.06c-2.61-5.22-5.22-9.14-9.14-13.06
	c-19.59-16.98-48.33-16.98-67.92,0c-3.92,3.92-6.53,7.84-9.14,13.06c-1.31,3.92-2.61,9.14-2.61,13.06
	C1777.63,641.92,1798.53,658.9,1822.04,657.59z M1822.04,605.35c9.14-1.31,16.98,3.92,19.59,13.06
	c-5.22,10.45-16.98,15.67-27.43,11.76c-5.22-2.61-9.14-6.53-11.76-11.76C1805.06,609.27,1812.9,604.04,1822.04,605.35z"/>
<path d="M986.12,657.59c23.51,1.31,44.41-15.67,45.71-39.18c0-3.92-1.31-9.14-2.61-13.06c-2.61-5.22-5.22-9.14-9.14-13.06
	c-19.59-16.98-48.33-16.98-67.92,0c-3.92,3.92-6.53,7.84-9.14,13.06c-1.31,3.92-2.61,9.14-2.61,13.06
	C941.71,641.92,962.61,658.9,986.12,657.59z M986.12,605.35c9.14-1.31,16.98,3.92,19.59,13.06c-2.61,9.14-10.45,14.37-19.59,13.06
	c-9.14,1.31-16.98-3.92-19.59-13.06C969.14,609.27,976.98,604.04,986.12,605.35z"/>
<path d="M973.06,1245.35c-22.2,0-39.18,16.98-39.18,39.18c0,22.2,16.98,39.18,39.18,39.18l0,0c22.2,0,39.18-16.98,39.18-39.18
	C1012.24,1262.33,995.27,1245.35,973.06,1245.35z M973.06,1297.59c-7.84,2.61-15.67,0-18.29-7.84s0-15.67,7.84-18.29
	c3.92-1.31,7.84-1.31,10.45,0c7.84-2.61,15.67,0,18.29,7.84c2.61,7.84,0,15.67-7.84,18.29
	C980.9,1298.9,976.98,1298.9,973.06,1297.59z"/>
</svg>
